#!OML:ASF X:\für Bonn\!DataBase\2005_08_12_Daniel\c3d\Daniel.ASF
:FULLY-SPECIFIED
:DEGREES
31
root 2.78296 17.657 17.4209 -4.67718 9.06983 -0.0183106
lowerback 4.0147 -2.77086 0.565322
upperback 2.40064 -3.67551 -1.73677
thorax 0.067618 -1.82285 -1.95058
lowerneck -1.86248 1.31862 -1.15459
upperneck 8.30086 2.11349 -3.66881
head 3.00566 0.890622 -0.918049
rclavicle -1.42255e-014 3.97569e-016
rhumerus -54.9293 -11.9987 -90.4817
rradius 64.6042
rwrist -14.9538
rhand -27.0369 22.9716
rfingers 7.12502
rthumb -0.455757 -7.0077
lclavicle -1.42255e-014 3.97569e-016
lhumerus -33.8334 29.7482 74.0846
lradius 19.881
lwrist -33.2935
lhand -4.78278 -5.01532
lfingers 7.12502
lthumb 21.0021 23.8675
rfemur 9.41889 20.601 22.0194
rtibia 13.2659
rfoot -25.6285 -26.9579
rtoes -11.3223
lfemur 1.63027 -16.151 -20.1402
ltibia 25.8059
lfoot -22.4852 11.562
ltoes -11.8444
32
root 2.78156 17.6568 17.4219 -4.68736 9.14258 -0.0186549
lowerback 4.03797 -2.73818 0.566266
upperback 2.39403 -3.63212 -1.7727
thorax 0.0471692 -1.80108 -1.98834
lowerneck -1.85518 1.28916 -1.244
upperneck 8.33566 2.07578 -3.62155
head 3.01359 0.870265 -0.888537
rclavicle -3.52843e-014 -1.39149e-014
rhumerus -55.1786 -11.6192 -90.7759
rradius 67.1875
rwrist -15.0141
rhand -27.2135 23.3772
rfingers 7.12502
rthumb -0.626307 -6.6016
lclavicle -3.52843e-014 -1.39149e-014
lhumerus -33.8863 29.6401 74.0765
lradius 19.9477
lwrist -33.2214
lhand -4.17737 -4.98269
lfingers 7.12502
lthumb 21.5836 23.8345
rfemur 9.4309 20.4586 22.0015
rtibia 13.2639
rfoot -25.5851 -26.9114
rtoes -11.3836
lfemur 1.62995 -16.1783 -20.1359
ltibia 25.8124
lfoot -22.4791 11.5169
ltoes -11.8453
33
root 2.78126 17.6566 17.4216 -4.69267 9.27534 -0.00850334
lowerback 4.08394 -2.73735 0.532009
upperback 2.36937 -3.63249 -1.77506
thorax -0.00183174 -1.80195 -1.96848
lowerneck -1.77967 1.27514 -1.3892
upperneck 8.31829 2.05843 -3.58702
head 2.99079 0.859508 -0.852949
rclavicle 8.67198e-015 1.82882e-014
rhumerus -55.3362 -11.1676 -91.0007
rradius 69.7199
rwrist -15.0192
rhand -27.3609 23.8975
rfingers 7.12502
rthumb -0.768687 -6.08088
lclavicle 8.67198e-015 1.82882e-014
lhumerus -33.9554 29.6402 74.0633
lradius 19.9483
lwrist -33.2639
lhand -3.60681 -5.00742
lfingers 7.12502
lthumb 22.1315 23.7459
rfemur 9.46164 20.3728 21.9944
rtibia 13.2595
rfoot -25.6229 -26.9273
rtoes -11.3385
lfemur 1.59605 -16.1627 -20.1192
ltibia 25.8201
lfoot -22.4375 11.3775
ltoes -11.8639
34
root 2.78048 17.6573 17.4219 -4.69504 9.35938 0.0167099
lowerback 4.10299 -2.70535 0.520685
upperback 2.36541 -3.59047 -1.82782
thorax -0.0175518 -1.78085 -2.01697
lowerneck -1.76327 1.23314 -1.44803
upperneck 8.34806 2.00517 -3.58051
head 2.99631 0.831175 -0.842495
rclavicle 3.77691e-015 -7.55382e-015
rhumerus -55.4146 -10.7234 -91.2798
rradius 72.2366
rwrist -14.9879
rhand -27.5249 24.6159
rfingers 7.12502
rthumb -0.92707 -5.36179
lclavicle 3.77691e-015 -7.55382e-015
lhumerus -33.9359 29.4724 74.0906
lradius 19.9327
lwrist -33.1477
lhand -3.11332 -4.96789
lfingers 7.12502
lthumb 22.6052 23.7285
rfemur 9.46225 20.2441 21.9424
rtibia 13.2609
rfoot -25.6007 -26.8845
rtoes -11.3581
lfemur 1.57634 -16.1367 -20.1252
ltibia 25.8239
lfoot -22.4086 11.276
ltoes -11.8779
35
root 2.7798 17.657 17.4215 -4.70999 9.47139 0.0287578
lowerback 4.13181 -2.67974 0.490377
upperback 2.36975 -3.55738 -1.84925
thorax -0.0273815 -1.76442 -2.02219
lowerneck -1.7386 1.19966 -1.54063
upperneck 8.34592 1.96282 -3.56657
head 2.98906 0.808142 -0.823359
rclavicle 3.8266e-014 -1.59028e-014
rhumerus -55.3115 -10.2393 -91.4871
rradius 74.6452
rwrist -14.8719
rhand -27.6976 25.3343
rfingers 7.12502
rthumb -1.09386 -4.64265
lclavicle 3.8266e-014 -1.59028e-014
lhumerus -33.9534 29.3755 74.1241
lradius 19.9689
lwrist -33.0744
lhand -2.60339 -4.97558
lfingers 7.12502
lthumb 23.0946 23.6604
rfemur 9.49311 20.1209 21.9205
rtibia 13.256
rfoot -25.6107 -26.8662
rtoes -11.3552
lfemur 1.56489 -16.1747 -20.1332
ltibia 25.8336
lfoot -22.3847 11.2085
ltoes -11.8878
36
root 2.77899 17.6569 17.4218 -4.70758 9.5482 0.029516
lowerback 4.14156 -2.64835 0.498974
upperback 2.35884 -3.51557 -1.89073
thorax -0.045464 -1.74338 -2.07054
lowerneck -1.7096 1.17508 -1.6367
upperneck 8.35891 1.92943 -3.50801
head 2.98557 0.790691 -0.788946
rclavicle -2.61526e-014 -6.36111e-015
rhumerus -55.1441 -9.73638 -91.6998
rradius 76.9861
rwrist -14.6519
rhand -27.7755 26.1693
rfingers 7.12502
rthumb -1.16911 -3.80721
lclavicle -2.61526e-014 -6.36111e-015
lhumerus -33.9866 29.4203 74.0544
lradius 19.9459
lwrist -33.1931
lhand -2.18858 -4.92311
lfingers 7.12502
lthumb 23.4925 23.6624
rfemur 9.50435 20.0576 21.9173
rtibia 13.2539
rfoot -25.6327 -26.8716
rtoes -11.3461
lfemur 1.53516 -16.1381 -20.1075
ltibia 25.8421
lfoot -22.3606 11.0994
ltoes -11.9012
37
root 2.77855 17.6569 17.4211 -4.71794 9.6362 0.0295815
lowerback 4.19212 -2.604 0.504104
upperback 2.33133 -3.45696 -1.92643
thorax -0.102006 -1.71431 -2.10931
lowerneck -1.65931 1.11834 -1.71676
upperneck 8.40998 1.85542 -3.48019
head 2.99139 0.752069 -0.768753
rclavicle -6.1499e-015 -1.55052e-014
rhumerus -54.8534 -9.28213 -91.8267
rradius 79.2543
rwrist -14.2856
rhand -27.8151 26.7857
rfingers 7.12502
rthumb -1.20729 -3.1906
lclavicle -6.1499e-015 -1.55052e-014
lhumerus -34.073 29.3487 74.042
lradius 19.9784
lwrist -33.2206
lhand -1.95219 -4.80815
lfingers 7.12502
lthumb 23.7192 23.7482
rfemur 9.52552 19.9338 21.8984
rtibia 13.2369
rfoot -25.6176 -26.8363
rtoes -11.3476
lfemur 1.5075 -16.1062 -20.0851
ltibia 25.8587
lfoot -22.3329 10.9849
ltoes -11.9152
38
root 2.77844 17.6568 17.4203 -4.72438 9.75539 0.038822
lowerback 4.21966 -2.57492 0.493284
upperback 2.32803 -3.41882 -1.96286
thorax -0.120754 -1.69523 -2.14096
lowerneck -1.62663 1.07073 -1.83392
upperneck 8.41582 1.7904 -3.4067
head 2.9842 0.71893 -0.726851
rclavicle 4.22914e-014 1.15295e-014
rhumerus -54.3753 -8.74339 -91.924
rradius 81.4672
rwrist -13.8498
rhand -27.8671 27.0943
rfingers 7.12502
rthumb -1.25756 -2.8817
lclavicle 4.22914e-014 1.15295e-014
lhumerus -34.0817 29.3786 74.011
lradius 19.9512
lwrist -33.328
lhand -1.71754 -4.76105
lfingers 7.12502
lthumb 23.9443 23.7659
rfemur 9.55267 19.8362 21.883
rtibia 13.2205
rfoot -25.6356 -26.8488
rtoes -11.3367
lfemur 1.47997 -16.1494 -20.087
ltibia 25.8748
lfoot -22.309 10.9147
ltoes -11.925
39
root 2.77702 17.657 17.42 -4.72444 9.82631 0.0388766
lowerback 4.23245 -2.53417 0.488745
upperback 2.3246 -3.36489 -1.99816
thorax -0.131017 -1.66817 -2.17643
lowerneck -1.5957 1.02663 -1.93566
upperneck 8.43047 1.73108 -3.35038
head 2.981 0.688321 -0.69304
rclavicle 1.96548e-014 -9.93923e-015
rhumerus -53.6641 -8.14089 -91.9901
rradius 83.4357
rwrist -13.2746
rhand -27.907 27.2197
rfingers 7.12502
rthumb -1.2961 -2.75608
lclavicle 1.96548e-014 -9.93923e-015
lhumerus -34.1245 29.4366 73.9735
lradius 19.934
lwrist -33.432
lhand -1.58847 -4.65408
lfingers 7.12502
lthumb 24.0681 23.8566
rfemur 9.56273 19.7395 21.8701
rtibia 13.2034
rfoot -25.6213 -26.826
rtoes -11.3389
lfemur 1.4481 -16.1346 -20.0649
ltibia 25.8912
lfoot -22.2904 10.8307
ltoes -11.9353
